PathFileType	4	(X/Y/Z)	/Users/visionmauri/1_6_1_f_Sports2D/1_6_1_f_Sports2D_px_person00.trc
DataRate	CameraRate	NumFrames	NumMarkers	Units	OrigDataRate	OrigDataStartFrame	OrigNumFrames
30.0	30.0	13	22	m	30.0	111	447
Frame#	Time	Hip			RHip			RKnee			RAnkle			RBigToe			RSmallToe			RHeel			LHip			LKnee			LAnkle			LBigToe			LSmallToe			LHeel			Neck			Head			Nose			RShoulder			RElbow			RWrist			LShoulder			LElbow			LWrist			
		X1	Y1	Z1	X2	Y2	Z2	X3	Y3	Z3	X4	Y4	Z4	X5	Y5	Z5	X6	Y6	Z6	X7	Y7	Z7	X8	Y8	Z8	X9	Y9	Z9	X10	Y10	Z10	X11	Y11	Z11	X12	Y12	Z12	X13	Y13	Z13	X14	Y14	Z14	X15	Y15	Z15	X16	Y16	Z16	X17	Y17	Z17	X18	Y18	Z18	X19	Y19	Z19	X20	Y20	Z20	X21	Y21	Z21	X22	Y22	Z22
111	3.7082959641255604	578.5105659585683	842.6401392680442	0.0	645.2971085658867	855.0901652927937	0.0	632.0155226044088	1136.1628196948946	0.0	607.6025509396069	1416.4352089837546	0.0	577.9966234419722	1479.969698528901	0.0	631.9724087688742	1489.2731998282723	0.0	599.743107132845	1458.8646463938226	0.0	510.701058156127	856.105252015758	0.0	517.7177632284734	1067.8994748951477	0.0	538.6816059471491	1092.7649041791128	0.0	549.5805286048342	1358.1178071361803	0.0	510.5457348866857	1332.5645582737516	0.0	542.9814215640046	1137.370467758991	0.0	558.7768883698661	497.2927005198678	0.0	546.3494690188948	389.48562717023196	0.0	553.2722600384504	453.18976873020284	0.0	675.0821696386571	532.3803672758487	0.0	749.1806539516141	706.9920414912667	0.0	769.8031237632546	828.5424001751895	0.0	448.7567045337336	535.4940201577008	0.0	395.2765418998996	714.1792835916899	0.0	391.15267693600146	731.2640384633747	0.0
112	3.7417040358744393	575.1163679603269	841.4699928700855	0.0	641.4753533758875	854.6618032720187	0.0	631.9431029214622	1131.575980260277	0.0	607.7840093514859	1404.2896891430144	0.0	577.6788291122892	1481.9899362211604	0.0	631.0945098192564	1486.3739870946267	0.0	597.3949997808086	1448.5616578415509	0.0	508.040201696402	855.8352769262242	0.0	514.9704881098995	1067.6966266393429	0.0	537.208881376957	1091.999292141339	0.0	550.2497148940132	1355.1881434070112	0.0	511.97166981842736	1328.0547379617078	0.0	542.1165740483959	1088.1959439203424	0.0	556.5491780132998	496.3561365422554	0.0	543.1152063034274	389.0910010858541	0.0	548.5709854216431	452.66844324013687	0.0	672.2368852739434	534.4857094203958	0.0	745.5539198051783	703.6724722185409	0.0	769.9326196601617	827.9721462617613	0.0	447.5118989608285	535.3010908285509	0.0	394.09179300457566	713.6166873403386	0.0	390.3246476028872	727.4340101136713	0.0
113	3.7751121076233183	570.7790539046403	841.9225510324477	0.0	637.3103982915115	855.0866417258716	0.0	632.7394753605075	1128.6904220186452	0.0	608.8406814625866	1390.3829347825192	0.0	576.0729312397159	1484.196591486831	0.0	629.2181026838508	1483.701261828956	0.0	595.1364831233242	1432.2459953626776	0.0	505.81985534847206	855.2257659822495	0.0	512.5335395338528	1065.3629540594984	0.0	534.6747813630271	1091.2211604872318	0.0	548.9310372967757	1343.0648179148686	0.0	511.5171661662402	1329.5524111693637	0.0	539.9220262576098	1069.0855711468394	0.0	553.7350915363129	495.7457798050808	0.0	540.9190666266991	388.91605394860505	0.0	546.0253334519359	452.2575267431641	0.0	670.2442836692513	535.5368246417881	0.0	742.7635781162888	701.3552582817933	0.0	770.0632143167202	829.0838581011614	0.0	445.06436875395093	535.1781396383617	0.0	392.2805091429937	713.0038815899723	0.0	390.74045710248714	726.523561564747	0.0
114	3.8085201793721972	567.1167510492387	842.5685060187884	0.0	633.6916694652339	854.4547983351642	0.0	634.2316479258077	1126.059122060661	0.0	610.9203250347516	1371.9873394367448	0.0	574.6564044550937	1486.4034235358451	0.0	626.8365540464922	1481.079779845978	0.0	594.1656965169578	1409.7382124618503	0.0	504.3640441191317	853.3748093242373	0.0	510.8441203289436	1061.847275074679	0.0	530.6299631768355	1090.5560964805397	0.0	542.6446265577773	1336.4458429304163	0.0	506.80010475605434	1342.2419031731843	0.0	536.670349223189	1063.1804897395577	0.0	551.12799595019	496.27636148576386	0.0	539.6584073077072	389.13229490468996	0.0	544.4373990631644	452.60572015708004	0.0	668.5689563247722	535.3784371664373	0.0	740.1955399965998	699.7851843422027	0.0	769.7808185524187	831.7027525634117	0.0	442.0887393134777	535.9937286227183	0.0	389.65205675841577	711.6856509066287	0.0	390.8730608352766	727.3089086511701	0.0
115	3.841928251121076	564.6653392766173	842.6959115336584	0.0	630.6927336377591	852.727112286504	0.0	635.744272270795	1120.9861054282774	0.0	613.0000482417495	1347.7398967090994	0.0	574.45019721915	1485.5079737564763	0.0	625.2105462558228	1474.887355989358	0.0	594.4294419572177	1384.2286936653384	0.0	502.8067232879022	851.3517693345477	0.0	509.60636397019465	1060.2395491178045	0.0	525.7957854991865	1096.1235583540777	0.0	533.0640545605542	1348.3097281272965	0.0	499.1924368641806	1364.7082648273197	0.0	533.441236776339	1072.3770938248365	0.0	549.0888153023607	498.8612746174052	0.0	539.3915290154054	389.54622437383	0.0	542.6840741324885	453.9635182009406	0.0	666.444147920481	535.3091708431721	0.0	737.2616838367077	698.1518557844045	0.0	768.9672034885065	833.7008667923438	0.0	439.6162464643082	538.7429676440258	0.0	386.3095190994013	711.5843483750473	0.0	391.24054720363836	727.600487411431	0.0
116	3.875336322869955	562.3617249127971	842.9707609768498	0.0	627.5281058804484	851.3413064756797	0.0	636.9443733103492	1112.7374900809475	0.0	614.2473243235091	1321.7304235477056	0.0	574.2673951293217	1474.890747295056	0.0	625.65506805043	1460.453772649069	0.0	595.1981606860686	1360.1614400158123	0.0	500.2300991743501	850.2711105822543	0.0	508.4100935703656	1060.7632110944833	0.0	522.1586949686737	1106.2244395245266	0.0	525.9618010536433	1363.3825459705406	0.0	493.7148858647766	1381.5581762985948	0.0	531.4445156738605	1117.4991035822602	0.0	547.410552164124	502.49707733211136	0.0	540.1843378044481	389.9410263160803	0.0	541.5221225836577	455.79568147469297	0.0	663.5256503898953	536.1765310590547	0.0	734.1119092452839	696.781013166498	0.0	767.3669683128768	834.3211850752679	0.0	437.5665382312328	543.0477377429072	0.0	383.3849673831824	713.0141709951471	0.0	391.8895580803965	727.2345435205597	0.0
117	3.908744394618834	559.6835233981166	843.127972531657	0.0	623.9369773468818	850.0800182249807	0.0	637.6882208038767	1103.2073163229052	0.0	614.7704796512071	1300.6174274379732	0.0	574.5399100217119	1454.1871361490978	0.0	629.2432064547713	1439.5780050157728	0.0	595.8040935117698	1341.6059366087363	0.0	497.3879233082552	849.6363198932445	0.0	507.26407217256224	1060.3474831391893	0.0	520.833835837716	1111.9350094536817	0.0	524.1032848163468	1353.9557434336223	0.0	492.6221280026583	1380.7661556296277	0.0	530.9481388910989	1208.2508430865357	0.0	546.4927140288545	505.39577965393636	0.0	541.2621116358895	390.52082587185134	0.0	542.1195544289476	457.26162022408585	0.0	660.3178869852728	537.6173890476962	0.0	731.0715235011339	695.7844261214358	0.0	764.526935351365	834.0776657522994	0.0	435.8593426575951	546.9427166472963	0.0	382.148755115701	713.2533705570154	0.0	391.25096522695833	726.6583358555558	0.0
118	3.9421524663677125	557.692635676317	842.4096502279333	0.0	621.0328867862769	848.5246461627253	0.0	637.26753122994	1094.7523951673859	0.0	615.1081078649207	1288.460586140878	0.0	577.5343201875628	1430.1670957157944	0.0	634.9879582576692	1418.2814266831851	0.0	596.0625597154633	1331.239776407339	0.0	495.5768103663434	848.8906474274553	0.0	505.6376584974197	1056.8693810333934	0.0	520.3369972676452	1108.530993712968	0.0	524.6871042328725	1311.6161984247497	0.0	492.7018635908815	1366.767237058603	0.0	530.5263708520972	1312.686321952835	0.0	546.4677232490653	507.1668498070574	0.0	542.0306728150988	391.56189924145133	0.0	544.0849915032019	458.2424716207419	0.0	658.1127190810718	539.116130493143	0.0	728.4096450535588	694.4291829016217	0.0	761.1309252345261	832.6800895648807	0.0	434.89750520768933	548.9968508908232	0.0	382.17743524612985	712.4330282165668	0.0	389.44110164300247	725.6007355954235	0.0
119	3.9755605381165915	557.1428934081473	840.8233397815948	0.0	619.7116070164512	847.3375337619882	0.0	635.375036580333	1088.2317550355165	0.0	615.2810656316123	1284.7916391237254	0.0	582.0370510442035	1408.4578118187192	0.0	638.7823250729211	1399.7533978181466	0.0	596.1398433269673	1328.233742406536	0.0	494.7621619353265	848.1790828135642	0.0	503.1517832301268	1051.5628172634622	0.0	518.9799485888449	1098.5760490254836	0.0	524.9114821376454	1265.4865085533986	0.0	491.37271809034013	1352.2218642140847	0.0	528.713922486766	1376.5104165512462	0.0	546.6096561017557	508.1749849365054	0.0	542.8121925833103	393.1301632809461	0.0	545.8277831592318	459.4510268052027	0.0	657.2135416654434	540.6917413295442	0.0	726.2748047779339	692.6661638807836	0.0	758.538677663775	830.4074953380023	0.0	434.77527173467985	549.5467761724957	0.0	381.9865217068887	712.4968941703473	0.0	388.21877262774933	725.4775004780338	0.0
120	4.00896860986547	556.9676904733557	838.3200869443876	0.0	618.9767185431366	845.7913538880168	0.0	632.9911143216599	1082.554492266722	0.0	614.9696051331359	1286.1581355355827	0.0	585.3629329101351	1389.4873291129707	0.0	638.2316280972034	1383.3355726373738	0.0	596.7767376754236	1328.6290597209522	0.0	494.37693005965133	846.8663559390674	0.0	501.1391793538309	1047.7345923654502	0.0	517.5651154918742	1090.859469356328	0.0	525.2193679957232	1245.971230042959	0.0	490.4036023074764	1345.1570086535485	0.0	525.8771307066361	1382.2214299827501	0.0	546.4567121041304	508.55136858744453	0.0	543.8588374171921	395.21526735460213	0.0	546.352808953043	461.2117950252442	0.0	656.4441801704303	542.2471103004788	0.0	724.0410992479464	691.1838479801755	0.0	756.5113416924137	828.7101265428372	0.0	435.16004751664434	549.7594052267964	0.0	380.7242114250524	712.2662571353524	0.0	388.10306843457874	728.9584278302161	0.0
121	4.04237668161435	555.9916910042872	835.0215281380491	0.0	617.9469110305662	842.856193965353	0.0	630.953708120837	1076.2393039112908	0.0	614.4503425652359	1288.631595271849	0.0	587.9024743246185	1371.42463229602	0.0	635.7693580052876	1368.0379953030556	0.0	598.872543328708	1328.9570266347014	0.0	494.42668355796593	844.2561005807851	0.0	500.9700450519543	1046.5662707930126	0.0	517.1651443263675	1089.9198675945436	0.0	526.6814982685189	1235.3595382091949	0.0	491.56701525068075	1339.9828242251062	0.0	523.275930737156	1339.780892153613	0.0	546.0848451319077	508.97420163039266	0.0	544.8556991196947	397.8243615447347	0.0	545.9998931004923	463.32439021861313	0.0	655.1275140930701	543.3318952833359	0.0	721.0319510025214	689.9437064447291	0.0	753.9845698994002	827.7921765941135	0.0	435.694052984533	550.2660264119979	0.0	378.8745962093896	709.6883826387285	0.0	388.162555086752	734.9017329957577	0.0
122	4.075784753363228	554.930803500067	832.3203833317638	0.0	617.6492605028163	840.1352480930666	0.0	628.869259006366	1070.3478382180242	0.0	614.0452626605905	1290.0101993432158	0.0	590.2384872052504	1355.4228775450122	0.0	633.8848890909874	1355.3249565778676	0.0	601.7427056811281	1328.570123998232	0.0	494.91577899521997	841.7414433012467	0.0	502.17905597112303	1046.5489412575678	0.0	516.8034157844573	1089.6070401455884	0.0	528.1055766410765	1214.7323644308865	0.0	493.0208305678845	1322.8510965348455	0.0	521.7294728587021	1252.6961054606732	0.0	545.5901530237459	510.4833844970021	0.0	545.8036773378012	400.69387581580054	0.0	545.9368895476232	465.90434757560416	0.0	653.526419809544	543.9656896079406	0.0	718.1043902560826	688.0996844031094	0.0	751.7655269504432	826.3412130821876	0.0	436.25121393524	550.9106362156431	0.0	377.8968426069197	705.6459587268773	0.0	387.7640880694525	739.4241779003848	0.0
123	4.109192825112108	555.1908701538352	831.3945476693228	0.0	618.752055510776	839.3557090505038	0.0	626.2605857068033	1068.0000863255573	0.0	613.3612405498146	1290.4802714779541	0.0	590.7784177688219	1343.1673247225654	0.0	632.3287977353127	1346.2289367893948	0.0	603.6122329330469	1328.2816025299462	0.0	495.5859495895596	840.7926827379504	0.0	503.71617518132115	1046.7067544511233	0.0	515.8241426482037	1086.985465695063	0.0	527.8241305300235	1213.0363027749513	0.0	492.6173817643778	1293.4434747829248	0.0	521.7997904628181	1150.676886378448	0.0	545.1998253950205	512.9094520624343	0.0	547.4396837597577	403.2658240955634	0.0	547.0393993606443	468.72653451433024	0.0	652.0093298629567	544.7479700449061	0.0	716.5814801930834	685.4126810073084	0.0	751.3866015448745	824.0117210621513	0.0	436.9623815681796	551.7356453921856	0.0	378.29520082552557	703.7719124957719	0.0	387.74929948452177	741.712819541552	0.0
